[Header]
FileType HTR
DataType HTRS
FileVersion 1
NumSegments 64
NumFrames 4
DataFrameRate 24
EulerRotationOrder ZYX
CalibrationUnits mm
RotationUnits Degrees
GlobalAxisofGravity Y
BoneLengthAxis Y
ScaleFactor 1.0
[SegmentNames&Hierarchy]
Hips	GLOBAL
Spine	Hips
Spine1	Spine
Spine2	Spine1
Neck	Spine2
Head	Neck
LeftEye	Head
RightEye	Head
LeftShoulder	Spine2
LeftArm	LeftShoulder
LeftForeArm	LeftArm
LeftHand	LeftForeArm
LeftHandThumb1	LeftHand
LeftHandThumb2	LeftHandThumb1
LeftHandThumb3	LeftHandThumb2
LeftHandThumb4	LeftHandThumb3
LeftHandIndex1	LeftHand
LeftHandIndex2	LeftHandIndex1
LeftHandIndex3	LeftHandIndex2
LeftHandIndex4	LeftHandIndex3
LeftHandMiddle1	LeftHand
LeftHandMiddle2	LeftHandMiddle1
LeftHandMiddle3	LeftHandMiddle2
LeftHandMiddle4	LeftHandMiddle3
LeftHandRing1	LeftHand
LeftHandRing2	LeftHandRing1
LeftHandRing3	LeftHandRing2
LeftHandRing4	LeftHandRing3
LeftHandPinky1	LeftHand
LeftHandPinky2	LeftHandPinky1
LeftHandPinky3	LeftHandPinky2
LeftHandPinky4	LeftHandPinky3
RightShoulder	Spine2
RightArm	RightShoulder
RightForeArm	RightArm
RightHand	RightForeArm
RightHandPinky1	RightHand
RightHandPinky2	RightHandPinky1
RightHandPinky3	RightHandPinky2
RightHandPinky4	RightHandPinky3
RightHandRing1	RightHand
RightHandRing2	RightHandRing1
RightHandRing3	RightHandRing2
RightHandRing4	RightHandRing3
RightHandMiddle1	RightHand
RightHandMiddle2	RightHandMiddle1
RightHandMiddle3	RightHandMiddle2
RightHandMiddle4	RightHandMiddle3
RightHandIndex1	RightHand
RightHandIndex2	RightHandIndex1
RightHandIndex3	RightHandIndex2
RightHandIndex4	RightHandIndex3
RightHandThumb1	RightHand
RightHandThumb2	RightHandThumb1
RightHandThumb3	RightHandThumb2
RightHandThumb4	RightHandThumb3
LeftUpLeg	Hips
LeftLeg	LeftUpLeg
LeftFoot	LeftLeg
LeftToeBase	LeftFoot
RightUpLeg	Hips
RightLeg	RightUpLeg
RightFoot	RightLeg
RightToeBase	RightFoot
[BasePosition]
Hips	0	0	0	0	0	0	1
Spine	0	0	0	0	0	0	1
Spine1	0	0	0	0	0	0	1
Spine2	0	0	0	0	0	0	1
Neck	0	0	0	0	0	0	1
Head	0	0	0	0	0	0	1
LeftEye	0	0	0	0	0	0	1
RightEye	0	0	0	0	0	0	1
LeftShoulder	0	0	0	0	0	0	1
LeftArm	0	0	0	0	0	0	1
LeftForeArm	0	0	0	0	0	0	1
LeftHand	0	0	0	0	0	0	1
LeftHandThumb1	0	0	0	0	0	0	1
LeftHandThumb2	0	0	0	0	0	0	1
LeftHandThumb3	0	0	0	0	0	0	1
LeftHandThumb4	0	0	0	0	0	0	1
LeftHandIndex1	0	0	0	0	0	0	1
LeftHandIndex2	0	0	0	0	0	0	1
LeftHandIndex3	0	0	0	0	0	0	1
LeftHandIndex4	0	0	0	0	0	0	1
LeftHandMiddle1	0	0	0	0	0	0	1
LeftHandMiddle2	0	0	0	0	0	0	1
LeftHandMiddle3	0	0	0	0	0	0	1
LeftHandMiddle4	0	0	0	0	0	0	1
LeftHandRing1	0	0	0	0	0	0	1
LeftHandRing2	0	0	0	0	0	0	1
LeftHandRing3	0	0	0	0	0	0	1
LeftHandRing4	0	0	0	0	0	0	1
LeftHandPinky1	0	0	0	0	0	0	1
LeftHandPinky2	0	0	0	0	0	0	1
LeftHandPinky3	0	0	0	0	0	0	1
LeftHandPinky4	0	0	0	0	0	0	1
RightShoulder	0	0	0	0	0	0	1
RightArm	0	0	0	0	0	0	1
RightForeArm	0	0	0	0	0	0	1
RightHand	0	0	0	0	0	0	1
RightHandPinky1	0	0	0	0	0	0	1
RightHandPinky2	0	0	0	0	0	0	1
RightHandPinky3	0	0	0	0	0	0	1
RightHandPinky4	0	0	0	0	0	0	1
RightHandRing1	0	0	0	0	0	0	1
RightHandRing2	0	0	0	0	0	0	1
RightHandRing3	0	0	0	0	0	0	1
RightHandRing4	0	0	0	0	0	0	1
RightHandMiddle1	0	0	0	0	0	0	1
RightHandMiddle2	0	0	0	0	0	0	1
RightHandMiddle3	0	0	0	0	0	0	1
RightHandMiddle4	0	0	0	0	0	0	1
RightHandIndex1	0	0	0	0	0	0	1
RightHandIndex2	0	0	0	0	0	0	1
RightHandIndex3	0	0	0	0	0	0	1
RightHandIndex4	0	0	0	0	0	0	1
RightHandThumb1	0	0	0	0	0	0	1
RightHandThumb2	0	0	0	0	0	0	1
RightHandThumb3	0	0	0	0	0	0	1
RightHandThumb4	0	0	0	0	0	0	1
LeftUpLeg	0	0	0	0	0	0	1
LeftLeg	0	0	0	0	0	0	1
LeftFoot	0	0	0	0	0	0	1
LeftToeBase	0	0	0	0	0	0	1
RightUpLeg	0	0	0	0	0	0	1
RightLeg	0	0	0	0	0	0	1
RightFoot	0	0	0	0	0	0	1
RightToeBase	0	0	0	0	0	0	1
[Hips]
80	-48.6973381	798.9003906	152.2842255	-346.1925964	23.31362343	9.044103622	1.0
81	-49.82463837	809.1715088	235.8265991	-350.9964905	17.2564106	4.703091145	1.0
82	-47.53110886	830.7662964	328.618927	-356.8476257	8.219330788	2.267402887	1.0
83	-52.91016006	838.255127	437.610321	-361.6756897	0.9691530466	2.454436302	1.0
[Spine]
80	0	101.8159943	1.315000057	3.569974422	2.26032567	-2.602826357	1.0
81	0	101.8159943	1.315000057	3.624039888	-1.465715528	-1.282839537	1.0
82	0	101.8159943	1.315000057	3.425648451	-3.760015726	-0.5926929116	1.0
83	0	101.8159943	1.315000057	3.008244038	-4.868211746	-0.1988726258	1.0
[Spine1]
80	0	100.8349991	-10.00800037	7.102077007	4.14372015	-3.334051371	1.0
81	0	100.8349991	-10.00800037	7.260128498	-2.814685106	-0.8957271576	1.0
82	0	100.8349991	-10.00800037	6.870280743	-6.751004696	-0.3771090508	1.0
83	0	100.8349991	-10.00800037	6.064374924	-9.71116066	-0.4927762747	1.0
[Spine2]
80	0	91	-13.73399925	7.102069378	4.143712997	-3.334051132	1.0
81	0	91	-13.73399925	7.260130405	-2.814684868	-0.8957289457	1.0
82	0	91	-13.73399925	6.870279312	-6.751001358	-0.377109319	1.0
83	0	91	-13.73399925	6.064375401	-9.71116066	-0.4927763343	1.0
[Neck]
80	0	166.7169952	-25.16200066	-3.682962656	-4.609448433	0.9677839279	1.0
81	0	166.7169952	-25.16200066	-0.684001863	-1.848222971	-2.971684456	1.0
82	0	166.7169952	-25.16200066	6.108692169	0.5034857988	-4.266524315	1.0
83	0	166.7169952	-25.16200066	9.463105202	3.017606258	-6.823015213	1.0
[Head]
80	0	96.17900085	16.84999847	-44.271595	-13.57444286	26.51163864	1.0
81	0	96.17900085	16.84999847	-33.6349678	-10.95100212	17.57597923	1.0
82	0	96.17900085	16.84999847	-20.01592827	-7.65034914	7.441073418	1.0
83	0	96.17900085	16.84999847	-8.99948597	-1.479113102	-0.8909034729	1.0
[LeftEye]
80	30.6760006	64.09500122	92.83599854	0	0	0	1.0
81	30.6760006	64.09500122	92.83599854	0	0	0	1.0
82	30.6760006	64.09500122	92.83599854	0	0	0	1.0
83	30.6760006	64.09500122	92.83599854	0	0	0	1.0
[RightEye]
80	-30.6760006	64.09500122	92.83499908	0	0	0	1.0
81	-30.6760006	64.09500122	92.83499908	0	0	0	1.0
82	-30.6760006	64.09500122	92.83499908	0	0	0	1.0
83	-30.6760006	64.09500122	92.83499908	0	0	0	1.0
[LeftShoulder]
80	45.70400238	109.4599991	-26.28000069	4.700029373	-28.15768051	-10.45542336	1.0
81	45.70400238	109.4599991	-26.28000069	7.100823402	-34.27275848	-13.45254612	1.0
82	45.70400238	109.4599991	-26.28000069	6.229803562	-33.2122345	-12.11080837	1.0
83	45.70400238	109.4599991	-26.28000069	6.064584732	-32.89720154	-12.18125916	1.0
[LeftArm]
80	105.923996	-5.24600029	-22.32099915	-10.22800636	29.14110756	-63.70375824	1.0
81	105.923996	-5.24600029	-22.32099915	-7.788806915	26.68331718	-58.72434998	1.0
82	105.923996	-5.24600029	-22.32099915	-4.59389782	17.7806263	-41.53023148	1.0
83	105.923996	-5.24600029	-22.32099915	-25.75078583	-6.145841599	-14.27311325	1.0
[LeftForeArm]
80	278.414978	-0.0009999999311	0	-718.1786499	-38.09728622	719.2703247	1.0
81	278.414978	-0.0009999999311	0	-719.4835815	-32.04932404	719.9738159	1.0
82	278.414978	-0.0009999999311	0	-719.2610474	-28.89485168	719.2589111	1.0
83	278.414978	-0.0009999999311	0	-718.6998901	-27.74318314	717.9768066	1.0
[LeftHand]
80	283.2879944	0	0	-39.03124619	-0.2536345124	15.07853889	1.0
81	283.2879944	0	0	-37.14478302	10.192029	2.856716156	1.0
82	283.2879944	0	0	-41.91965485	8.63442421	2.923443317	1.0
83	283.2879944	0	0	-47.33961487	-0.4053452015	9.809757233	1.0
[LeftHandThumb1]
80	24.6609993	-15.75	26.8239994	2.582411289	-8.339268684	20.63059235	1.0
81	24.6609993	-15.75	26.8239994	3.731019974	-8.375378609	19.70568275	1.0
82	24.6609993	-15.75	26.8239994	5.13608408	-8.381514549	18.49512863	1.0
83	24.6609993	-15.75	26.8239994	3.895792246	-7.942705154	7.202939987	1.0
[LeftHandThumb2]
80	32.29800034	-18.64699936	18.64699936	6.553103447	7.565927982	-12.84312725	1.0
81	32.29800034	-18.64699936	18.64699936	4.793479919	12.03399563	-15.88247299	1.0
82	32.29800034	-18.64699936	18.64699936	2.408196449	17.61539078	-20.0616684	1.0
83	32.29800034	-18.64699936	18.64699936	1.859202623	25.9313736	-24.66423607	1.0
[LeftHandThumb3]
80	26.52600098	-15.31499958	15.31499958	3.601811159e-06	-8.438974328e-05	-6.943767221e-05	1.0
81	26.52600098	-15.31499958	15.31499958	3.601811159e-06	-8.438974328e-05	-6.943767221e-05	1.0
82	26.52600098	-15.31499958	15.31499958	3.601811159e-06	-8.438974328e-05	-6.943767221e-05	1.0
83	26.52600098	-15.31499958	15.31499958	3.601811159e-06	-8.438974328e-05	-6.943767221e-05	1.0
[LeftHandThumb4]
80	19.54599953	-11.28499985	11.28499985	0	0	0	1.0
81	19.54599953	-11.28499985	11.28499985	0	0	0	1.0
82	19.54599953	-11.28499985	11.28499985	0	0	0	1.0
83	19.54599953	-11.28499985	11.28499985	0	0	0	1.0
[LeftHandIndex1]
80	91.09299469	-5.170999527	22.60099792	-0.4093746543	-1.287488103	-14.58094597	1.0
81	91.09299469	-5.170999527	22.60099792	-1.375547409	-2.738993168	-29.25687218	1.0
82	91.09299469	-5.170999527	22.60099792	-1.92967689	-4.80941534	-47.77594757	1.0
83	91.09299469	-5.170999527	22.60099792	0.4251110554	-4.532514095	-74.28357697	1.0
[LeftHandIndex2]
80	36.76399994	0	0	-0.6349201798	-0.3048735857	-24.96737862	1.0
81	36.76399994	0	0	-1.153725982	-3.096835136	-44.95840454	1.0
82	36.76399994	0	0	-0.4018335938	-6.586936474	-70.24920654	1.0
83	36.76399994	0	0	0.08192321658	-8.112107277	-85.66847229	1.0
[LeftHandIndex3]
80	28.83100128	0	0	-1.432096042e-06	3.907105395e-07	1.552835329e-06	1.0
81	28.83100128	0	0	-1.432096042e-06	3.907105395e-07	1.552835329e-06	1.0
82	28.83100128	0	0	-1.432096042e-06	3.907105395e-07	1.552835329e-06	1.0
83	28.83100128	0	0	-1.432096042e-06	3.907105395e-07	1.552835329e-06	1.0
[LeftHandIndex4]
80	23.92700005	0	0	0	0	0	1.0
81	23.92700005	0	0	0	0	0	1.0
82	23.92700005	0	0	0	0	0	1.0
83	23.92700005	0	0	0	0	0	1.0
[LeftHandMiddle1]
80	95.33399963	0	0	-0.9514470696	-0.4631085396	-21.69588089	1.0
81	95.33399963	0	0	-1.641025424	-2.186594963	-35.78856659	1.0
82	95.33399963	0	0	-1.880282044	-4.511416435	-53.56529617	1.0
83	95.33399963	0	0	-0.7044425011	-6.411732674	-75.84093475	1.0
[LeftHandMiddle2]
80	36.98199844	0	0	-0.4746734798	-1.622884274	-21.44802094	1.0
81	36.98199844	0	0	-0.6859872341	-3.774942875	-39.2277565	1.0
82	36.98199844	0	0	-0.0008288323297	-6.407725811	-61.71862411	1.0
83	36.98199844	0	0	0.7645674944	-7.917870522	-79.29135132	1.0
[LeftHandMiddle3]
80	29.50900078	0	0	0	-3.180554719e-15	-7.951386796e-16	1.0
81	29.50900078	0	0	0	-3.180554719e-15	-7.951386796e-16	1.0
82	29.50900078	0	0	0	-3.180554719e-15	-7.951386796e-16	1.0
83	29.50900078	0	0	0	-3.180554719e-15	-7.951386796e-16	1.0
[LeftHandMiddle4]
80	28.3390007	0	0	0	0	0	1.0
81	28.3390007	0	0	0	0	0	1.0
82	28.3390007	0	0	0	0	0	1.0
83	28.3390007	0	0	0	0	0	1.0
[LeftHandRing1]
80	91.04499817	-0.4390000105	-18.65100098	-3.046868086	5.022954464	-32.22855377	1.0
81	91.04499817	-0.4390000105	-18.65100098	-3.211303711	2.708807468	-45.42680359	1.0
82	91.04499817	-0.4390000105	-18.65100098	-2.860777855	-0.2509910464	-62.03768921	1.0
83	91.04499817	-0.4390000105	-18.65100098	-2.882569075	-4.707793236	-82.58235168	1.0
[LeftHandRing2]
80	31.54000092	0	0	1.438162565	-2.397092104	-29.57335472	1.0
81	31.54000092	0	0	2.741155386	-2.792410612	-45.41424179	1.0
82	31.54000092	0	0	4.454720497	-2.761999846	-65.39437866	1.0
83	31.54000092	0	0	5.839315414	-2.49014616	-78.02071381	1.0
[LeftHandRing3]
80	29.37700081	0	0	1.590277359e-15	3.180554719e-15	-7.951386796e-16	1.0
81	29.37700081	0	0	1.590277359e-15	3.180554719e-15	-7.951386796e-16	1.0
82	29.37700081	0	0	1.590277359e-15	3.180554719e-15	-7.951386796e-16	1.0
83	29.37700081	0	0	1.590277359e-15	3.180554719e-15	-7.951386796e-16	1.0
[LeftHandRing4]
80	26.47500038	0	0	0	0	0	1.0
81	26.47500038	0	0	0	0	0	1.0
82	26.47500038	0	0	0	0	0	1.0
83	26.47500038	0	0	0	0	0	1.0
[LeftHandPinky1]
80	80.77799988	-4.887000084	-38.06099701	-3.758645535	10.34219646	-30.169384	1.0
81	80.77799988	-4.887000084	-38.06099701	-3.826902866	6.952961922	-43.16918945	1.0
82	80.77799988	-4.887000084	-38.06099701	-3.396586895	2.613142967	-59.49448776	1.0
83	80.77799988	-4.887000084	-38.06099701	-2.942492962	-4.790374756	-81.82419586	1.0
[LeftHandPinky2]
80	36	0	0	4.916971207	-4.346201897	-46.47965622	1.0
81	36	0	0	6.737128258	-3.14814043	-60.5560112	1.0
82	36	0	0	8.524506569	-1.072808862	-78.19863129	1.0
83	36	0	0	9.930124283	-0.1036909819	-86.46419525	1.0
[LeftHandPinky3]
80	21.14200211	0	0	3.226109357e-06	2.925280342e-06	-5.739977951e-06	1.0
81	21.14200211	0	0	3.226109357e-06	2.925280342e-06	-5.739977951e-06	1.0
82	21.14200211	0	0	3.226109357e-06	2.925280342e-06	-5.739977951e-06	1.0
83	21.14200211	0	0	3.226109357e-06	2.925280342e-06	-5.739977951e-06	1.0
[LeftHandPinky4]
80	19.75699997	0	0	0	0	0	1.0
81	19.75699997	0	0	0	0	0	1.0
82	19.75699997	0	0	0	0	0	1.0
83	19.75699997	0	0	0	0	0	1.0
[RightShoulder]
80	-45.70000076	109.4620056	-26.28000069	1.336403966	6.662817001	2.204353571	1.0
81	-45.70000076	109.4620056	-26.28000069	0.2494338304	0.05393469706	0.7000626326	1.0
82	-45.70000076	109.4620056	-26.28000069	0.3647371233	0.6779016256	0.8030988574	1.0
83	-45.70000076	109.4620056	-26.28000069	0.1599274129	-1.206037164	-1.238197327	1.0
[RightArm]
80	-105.9280014	-5.248000145	-22.32099915	-346.0104675	33.0348053	-307.179718	1.0
81	-105.9280014	-5.248000145	-22.32099915	-347.6481934	37.39346313	-307.6838989	1.0
82	-105.9280014	-5.248000145	-22.32099915	-351.33078	29.17238617	-304.3852844	1.0
83	-105.9280014	-5.248000145	-22.32099915	-357.8304443	10.46063614	-307.0671997	1.0
[RightForeArm]
80	-278.414978	0	0	0.6780310869	81.92457581	2.171678782	1.0
81	-278.414978	0	0	6.723357677	87.92105865	8.627448082	1.0
82	-278.414978	0	0	170.8595886	86.6674881	172.7342224	1.0
83	-278.414978	0	0	169.3471527	83.30138397	171.2853851	1.0
[RightHand]
80	-283.2879944	0	0.0009999999311	24.13400459	25.21621895	8.969568253	1.0
81	-283.2879944	0	0.0009999999311	23.04268074	24.01368904	11.36176586	1.0
82	-283.2879944	0	0.0009999999311	12.62370491	23.21094704	13.15813828	1.0
83	-283.2879944	0	0.0009999999311	1.49767065	22.81264496	8.525517464	1.0
[RightHandPinky1]
80	-80.76699829	-4.885000229	-38.06000137	0.2026346624	14.28622437	108.5404663	1.0
81	-80.76699829	-4.885000229	-38.06000137	0.5158553123	14.63714314	109.1511765	1.0
82	-80.76699829	-4.885000229	-38.06000137	0.6828287244	14.85174847	109.5318375	1.0
83	-80.76699829	-4.885000229	-38.06000137	0.6885639429	14.87768364	109.3364105	1.0
[RightHandPinky2]
80	-36	0	0.0009999999311	14.80799103	2.01994729	95.62763977	1.0
81	-36	0	0.0009999999311	15.0017786	1.666185021	97.80254364	1.0
82	-36	0	0.0009999999311	15.09750271	1.48571074	98.93682861	1.0
83	-36	0	0.0009999999311	15.11373711	1.429222822	99.26110077	1.0
[RightHandPinky3]
80	-21.14200211	0	0	-1.590277359e-15	0	-7.951386796e-16	1.0
81	-21.14200211	0	0	-1.590277359e-15	0	-7.951386796e-16	1.0
82	-21.14200211	0	0	-1.590277359e-15	0	-7.951386796e-16	1.0
83	-21.14200211	0	0	-1.590277359e-15	0	-7.951386796e-16	1.0
[RightHandPinky4]
80	-19.75699997	0	0	0	0	0	1.0
81	-19.75699997	0	0	0	0	0	1.0
82	-19.75699997	0	0	0	0	0	1.0
83	-19.75699997	0	0	0	0	0	1.0
[RightHandRing1]
80	-91.03599548	-0.4390000105	-18.65100098	-1.977306247	10.35752201	107.4043808	1.0
81	-91.03599548	-0.4390000105	-18.65100098	-1.782418966	10.55980492	108.0293274	1.0
82	-91.03599548	-0.4390000105	-18.65100098	-1.671394467	10.68566704	108.4369125	1.0
83	-91.03599548	-0.4390000105	-18.65100098	-1.667488575	10.70004082	108.264679	1.0
[RightHandRing2]
80	-31.54000092	0	0	8.231651306	3.852978706	83.62221527	1.0
81	-31.54000092	0	0	8.463763237	3.752951622	85.94997406	1.0
82	-31.54000092	0	0	8.580269814	3.705400467	87.10970306	1.0
83	-31.54000092	0	0	8.595481873	3.696925163	87.27076721	1.0
[RightHandRing3]
80	-29.37700081	0	0	5.740008078e-07	-7.531911024e-07	-2.69121324e-06	1.0
81	-29.37700081	0	0	5.740008078e-07	-7.531911024e-07	-2.69121324e-06	1.0
82	-29.37700081	0	0	5.740008078e-07	-7.531911024e-07	-2.69121324e-06	1.0
83	-29.37700081	0	0	5.740008078e-07	-7.531911024e-07	-2.69121324e-06	1.0
[RightHandRing4]
80	-26.47500038	0	0	0	0	0	1.0
81	-26.47500038	0	0	0	0	0	1.0
82	-26.47500038	0	0	0	0	0	1.0
83	-26.47500038	0	0	0	0	0	1.0
[RightHandMiddle1]
80	-95.32500458	0	0	0.191200763	7.897072315	102.6444855	1.0
81	-95.32500458	0	0	0.2524103522	7.944291592	103.2299805	1.0
82	-95.32500458	0	0	0.2940059006	7.974612713	103.6307602	1.0
83	-95.32500458	0	0	0.2723054886	7.957415581	103.4305649	1.0
[RightHandMiddle2]
80	-36.98199844	0	0	-0.35555619	7.587614059	91.2682724	1.0
81	-36.98199844	0	0	-0.1270875484	7.782851219	94.05448914	1.0
82	-36.98199844	0	0	-0.0130223725	7.866970062	95.50360107	1.0
83	-36.98199844	0	0	0.01123104803	7.884475708	95.79185486	1.0
[RightHandMiddle3]
80	-29.50900078	0	0	1.856611448e-06	-0.002022909233	1.577868488e-06	1.0
81	-29.50900078	0	0	1.856611448e-06	-0.002022909233	1.577868488e-06	1.0
82	-29.50900078	0	0	1.856611448e-06	-0.002022909233	1.577868488e-06	1.0
83	-29.50900078	0	0	1.856611448e-06	-0.002022909233	1.577868488e-06	1.0
[RightHandMiddle4]
80	-28.3390007	0	0.0009999999311	0	0	0	1.0
81	-28.3390007	0	0.0009999999311	0	0	0	1.0
82	-28.3390007	0	0.0009999999311	0	0	0	1.0
83	-28.3390007	0	0.0009999999311	0	0	0	1.0
[RightHandIndex1]
80	-91.08300018	-5.167999744	22.60099792	3.53465414	2.004515171	107.9228439	1.0
81	-91.08300018	-5.167999744	22.60099792	3.530799866	1.95871985	108.5703583	1.0
82	-91.08300018	-5.167999744	22.60099792	3.540326357	1.932402968	108.9910583	1.0
83	-91.08300018	-5.167999744	22.60099792	3.516980171	1.915236473	108.7594986	1.0
[RightHandIndex2]
80	-36.76399994	0	0	-1.999329567	6.965796947	90.873909	1.0
81	-36.76399994	0	0	-1.725641727	7.300681591	94.20874786	1.0
82	-36.76399994	0	0	-1.581972122	7.452915192	95.98886108	1.0
83	-36.76399994	0	0	-1.547442913	7.487099648	96.39712524	1.0
[RightHandIndex3]
80	-28.83100128	0	0	-3.180554719e-15	0	0	1.0
81	-28.83100128	0	0	-3.180554719e-15	0	0	1.0
82	-28.83100128	0	0	-3.180554719e-15	0	0	1.0
83	-28.83100128	0	0	-3.180554719e-15	0	0	1.0
[RightHandIndex4]
80	-23.92700005	0	0	0	0	0	1.0
81	-23.92700005	0	0	0	0	0	1.0
82	-23.92700005	0	0	0	0	0	1.0
83	-23.92700005	0	0	0	0	0	1.0
[RightHandThumb1]
80	-24.64799881	-15.72700024	26.82600021	16.98898506	27.61296654	-7.750463009	1.0
81	-24.64799881	-15.72700024	26.82600021	17.18157959	27.67149162	-7.451477051	1.0
82	-24.64799881	-15.72700024	26.82600021	17.37995911	27.84508324	-7.392337322	1.0
83	-24.64799881	-15.72700024	26.82600021	17.69403839	28.31758118	-7.724617958	1.0
[RightHandThumb2]
80	-32.29800034	-18.64699936	18.64699936	-3.547404766	-31.00068474	64.74170685	1.0
81	-32.29800034	-18.64699936	18.64699936	-4.228653908	-31.90890884	65.76313782	1.0
82	-32.29800034	-18.64699936	18.64699936	-4.666175842	-32.37939072	66.57556915	1.0
83	-32.29800034	-18.64699936	18.64699936	-4.830189228	-32.41352844	67.43339539	1.0
[RightHandThumb3]
80	-26.52600098	-15.31399918	15.31399918	-3.81245151e-08	-0.00121095567	-0.001221005921	1.0
81	-26.52600098	-15.31399918	15.31399918	-3.81245151e-08	-0.00121095567	-0.001221005921	1.0
82	-26.52600098	-15.31399918	15.31399918	-3.81245151e-08	-0.00121095567	-0.001221005921	1.0
83	-26.52600098	-15.31399918	15.31399918	-3.81245151e-08	-0.00121095567	-0.001221005921	1.0
[RightHandThumb4]
80	-19.54599953	-11.28499985	11.28499985	0	0	0	1.0
81	-19.54599953	-11.28499985	11.28499985	0	0	0	1.0
82	-19.54599953	-11.28499985	11.28499985	0	0	0	1.0
83	-19.54599953	-11.28499985	11.28499985	0	0	0	1.0
[LeftUpLeg]
80	82.07800293	-67.51699829	-15.99599934	-47.39498901	2.806995869	1.816004395	1.0
81	82.07800293	-67.51699829	-15.99599934	-34.64294815	6.740062237	6.831160069	1.0
82	82.07800293	-67.51699829	-15.99599934	-18.06565857	10.34645271	9.671287537	1.0
83	82.07800293	-67.51699829	-15.99599934	-3.097601891	12.59078312	11.49455261	1.0
[LeftLeg]
80	0	-443.7049866	2.845999956	77.33493805	-2.29586792	-7.351268768	1.0
81	0	-443.7049866	2.845999956	74.25176239	-4.293913841	-7.154639244	1.0
82	0	-443.7049866	2.845999956	68.45738983	-5.825986385	-4.495259285	1.0
83	0	-443.7049866	2.845999956	61.76480103	-7.94141531	-2.81063652	1.0
[LeftFoot]
80	0	-444.2789917	-29.8219986	-41.29738617	-12.10321808	2.429553032	1.0
81	0	-444.2789917	-29.8219986	-45.14788055	-10.0399332	-0.5758770108	1.0
82	0	-444.2789917	-29.8219986	-39.18201447	-8.960704803	-4.149339199	1.0
83	0	-444.2789917	-29.8219986	-30.10304642	-9.118440628	-6.572223663	1.0
[LeftToeBase]
80	0	-87.28699493	107.1060028	-1.215326905	-9.317832337e-07	1.31124159e-06	1.0
81	0	-87.28699493	107.1060028	-4.980284691	2.736249144e-06	4.995719792e-06	1.0
82	0	-87.28699493	107.1060028	-13.43964481	1.816179406e-06	8.598833119e-06	1.0
83	0	-87.28699493	107.1060028	-20.06075859	2.02127876e-06	1.278086802e-05	1.0
[RightUpLeg]
80	-82.07800293	-67.51699829	-15.99599934	-33.84132767	-12.47067165	-13.66355228	1.0
81	-82.07800293	-67.51699829	-15.99599934	-48.39740372	-8.206802368	-14.26528454	1.0
82	-82.07800293	-67.51699829	-15.99599934	-56.40859604	-3.651914835	-12.70139885	1.0
83	-82.07800293	-67.51699829	-15.99599934	-52.78173828	-1.924240708	-11.46841049	1.0
[RightLeg]
80	0	-443.7049866	2.861999989	92.6283493	5.221979618	-10.81417084	1.0
81	0	-443.7049866	2.861999989	87.48505402	5.812461853	-11.11632061	1.0
82	0	-443.7049866	2.861999989	69.85171509	5.231403828	-9.360302925	1.0
83	0	-443.7049866	2.861999989	41.96382904	7.192330837	-6.368175507	1.0
[RightFoot]
80	0	-444.2770081	-29.83799934	-24.49045944	-14.40791321	-0.5335916877	1.0
81	0	-444.2770081	-29.83799934	-28.60584068	-9.895557404	7.113958359	1.0
82	0	-444.2770081	-29.83799934	-23.58505249	-4.628400803	9.959810257	1.0
83	0	-444.2770081	-29.83799934	-16.13547897	-1.3908813	15.4162178	1.0
[RightToeBase]
80	0	-87.28699493	107.1060028	-5.773980141	-1.137655772e-06	1.698434062e-06	1.0
81	0	-87.28699493	107.1060028	-3.904026508	4.870609587e-07	1.175652642e-06	1.0
82	0	-87.28699493	107.1060028	-5.646348476	4.56968246e-06	3.399624802e-06	1.0
83	0	-87.28699493	107.1060028	-7.210394859	-7.677012945e-07	4.586323712e-07	1.0
[EndOfFile]
